# xmcd CD database file
#
# Track frame offsets:
#	150
#	16777
#	37928
#	55374
#	74932
#	89513
#	108912
#	124046
#	146380
#	169158
#	191016
#	209851
#
# Disc length: 2961 seconds
#
# Revision: 0
# Processed by: cddbd v1.5.1PL0 Copyright (c) Steve Scherf et al.
# Submitted via: CDex 1.51
#
DISCID=b20b8f0c
DTITLE=CAROW - ファースト・センス
DYEAR=2004
DGENRE=Pop
TTITLE0=CHI・HEY・SEN
TTITLE1=Kagero
TTITLE2=夜・・・
TTITLE3=ひとりごと
TTITLE4=雨法師
TTITLE5=Day Dream
TTITLE6=賛美歌
TTITLE7=Fusion
TTITLE8=青空
TTITLE9=夢占〜yumeura〜
TTITLE10=SECONDARY
TTITLE11=千夜抄
EXTD=YEAR: 2004
EXTT0=
EXTT1=
EXTT2=
EXTT3=
EXTT4=
EXTT5=
EXTT6=
EXTT7=
EXTT8=
EXTT9=
EXTT10=
EXTT11=
PLAYORDER=
